<?xml version="1.0" encoding="iso-8859-1"?>
<!-- Generator: Adobe Illustrator 19.0.0, SVG Export Plug-In . SVG Version: 6.00 Build 0)  -->
<svg version="1.1" id="Layer_1" xmlns="http://www.w3.org/2000/svg" xmlns:xlink="http://www.w3.org/1999/xlink" x="0px" y="0px"
	 viewBox="0 0 512 512" style="enable-background:new 0 0 512 512;" xml:space="preserve">
<g>
	<path style="fill:#5B4337;" d="M147.486,97.8c-1.422-1.563-3.438-2.453-5.55-2.453h-3.924c-19.234,0-35.547,14.39-37.949,33.472
		l-7.547,59.962c-1.37,10.886,2.007,21.849,9.265,30.077c7.258,8.229,17.712,12.947,28.684,12.947c3.871,0,7.107-2.944,7.471-6.798
		l11.471-121.451C149.605,101.452,148.909,99.363,147.486,97.8z"/>
	<path style="fill:#5B4337;" d="M418.893,188.78l-7.546-59.962c-2.402-19.082-18.716-33.472-37.949-33.472h-3.925
		c-2.112,0-4.128,0.891-5.55,2.453c-1.423,1.563-2.119,3.652-1.921,5.756l11.471,121.451c0.364,3.854,3.6,6.798,7.471,6.798
		c10.973,0,21.427-4.719,28.684-12.947C416.886,210.628,420.263,199.666,418.893,188.78z"/>
	<path style="fill:#5B4337;" d="M329.764,352.597H184.239c-4.145,0-7.504,3.359-7.504,7.504v36.252c0,4.144,3.359,7.504,7.504,7.504
		h145.524c4.145,0,7.504-3.36,7.504-7.504v-36.252C337.267,355.956,333.908,352.597,329.764,352.597z"/>
</g>
<path style="fill:#4C372E;" d="M329.764,352.597h-30.015v51.26h30.015c4.145,0,7.504-3.36,7.504-7.504v-36.252
	C337.267,355.956,333.908,352.597,329.764,352.597z"/>
<path style="fill:#8C6950;" d="M395.636,304.479L372.638,52.603C369.901,22.615,345.127,0,315.013,0H196.614
	c-30.114,0-54.886,22.615-57.625,52.603l-22.998,251.876c-1.476,16.155,3.951,32.291,14.888,44.272
	c10.937,11.982,26.514,18.853,42.737,18.853h164.395c16.223,0,31.799-6.871,42.736-18.853
	C391.686,336.771,397.112,320.634,395.636,304.479z"/>
<path style="fill:#725644;" d="M395.636,304.479L372.638,52.603C369.901,22.615,345.127,0,315.013,0h-38.019
	c30.114,0,54.886,22.615,57.625,52.603l22.999,251.876c1.476,16.155-3.951,32.291-14.888,44.272
	c-10.937,11.982-26.513,18.853-42.736,18.853h38.019c16.223,0,31.799-6.871,42.736-18.853
	C391.686,336.771,397.112,320.634,395.636,304.479z"/>
<path style="fill:#AA7F63;" d="M290.675,104.717c-0.192-3.999-3.491-7.143-7.495-7.143h-57.952c-4.004,0-7.303,3.144-7.495,7.143
	l-6.439,133.506c-0.099,2.051,0.646,4.052,2.063,5.538c1.417,1.486,3.38,2.327,5.433,2.327h70.829c2.053,0,4.016-0.841,5.433-2.327
	c1.416-1.486,2.161-3.487,2.062-5.538L290.675,104.717z"/>
<path style="fill:#725644;" d="M295.49,233.911c-1.424-1.788-3.585-2.83-5.871-2.83H218.79c-2.286,0-4.447,1.043-5.871,2.83
	c-1.424,1.789-1.954,4.129-1.441,6.357l6.439,27.972c0.783,3.406,3.816,5.82,7.313,5.82h57.952c3.496,0,6.528-2.414,7.313-5.82
	l6.439-27.972C297.444,238.04,296.914,235.7,295.49,233.911z"/>
<path style="fill:#5B4337;" d="M317.636,306.841h-121.27c-4.145,0-7.504-3.359-7.504-7.504s3.359-7.504,7.504-7.504h121.27
	c4.145,0,7.504,3.359,7.504,7.504S321.781,306.841,317.636,306.841z"/>
<path style="fill:#8C6950;" d="M423.659,502.631l-14.942-58.214c-8.549-33.307-38.536-56.568-72.921-56.568H177.282
	c-33.782,0-63.633,22.749-72.59,55.323l-16.318,59.336c-0.621,2.257-0.152,4.675,1.268,6.537c1.419,1.862,3.626,2.956,5.968,2.956
	h320.781c2.318,0,4.507-1.072,5.929-2.904C423.742,507.264,424.236,504.876,423.659,502.631z"/>
<path style="fill:#725644;" d="M423.659,502.631l-14.942-58.214c-8.549-33.307-38.536-56.568-72.921-56.568h-38.019
	c34.385,0,64.372,23.262,72.921,56.568l14.942,58.214c0.576,2.245,0.082,4.632-1.34,6.464c-1.422,1.833-3.61,2.904-5.929,2.904
	h38.019c2.318,0,4.507-1.072,5.929-2.904C423.742,507.264,424.236,504.876,423.659,502.631z"/>
<path style="fill:#5B4337;" d="M332.89,112.582H176.735c-4.145,0-7.504-3.359-7.504-7.504c0-4.145,3.359-7.504,7.504-7.504h156.154
	c4.145,0,7.504,3.359,7.504,7.504C340.394,109.224,337.034,112.582,332.89,112.582z"/>
<g>
</g>
<g>
</g>
<g>
</g>
<g>
</g>
<g>
</g>
<g>
</g>
<g>
</g>
<g>
</g>
<g>
</g>
<g>
</g>
<g>
</g>
<g>
</g>
<g>
</g>
<g>
</g>
<g>
</g>
</svg>
