<?xml version="1.0" encoding="iso-8859-1"?>
<!-- Generator: Adobe Illustrator 21.0.0, SVG Export Plug-In . SVG Version: 6.00 Build 0)  -->
<svg version="1.1" id="Capa_1" xmlns="http://www.w3.org/2000/svg" xmlns:xlink="http://www.w3.org/1999/xlink" x="0px" y="0px"
	 viewBox="0 0 512 512" style="enable-background:new 0 0 512 512;" xml:space="preserve">
<path style="fill:#76E2F8;" d="M263.441,1.978C261.142,0.659,258.571,0,256,0l-30,61l30,62.153L360.103,181H391l74.171,3.626
	l13.802-56.154c-1.306-2.25-3.195-4.162-5.532-5.495L263.441,1.978z"/>
<path style="fill:#25D9F8;" d="M388.927,329.781l18.357,58.863l71.689-5.117c1.306-2.25,2.027-4.839,2.027-7.527V136
	c0-2.688-0.721-5.277-2.027-7.527L391,181l-15,38.833v72.349"/>
<path style="fill:#76E2F8;" d="M263.441,510.022l210-121c2.336-1.333,4.226-3.245,5.532-5.495l-90.046-53.747l-23.351-1.807
	L256,388.847l-30,70.028L256,512c1.282,0,2.567-0.165,3.82-0.494S262.292,510.682,263.441,510.022z"/>
<path style="fill:#A8EBFA;" d="M168.19,323.386l-45.117,6.394l-44.864-3.221l-45.182,56.968c1.306,2.25,3.195,4.162,5.532,5.495
	l210,121c1.15,0.659,2.369,1.154,3.622,1.483S254.718,512,256,512V388.847L168.19,323.386z"/>
<path style="fill:#76E2F8;" d="M121,181l-37.5-52.391l-50.473-0.137C31.721,130.723,31,133.312,31,136v240
	c0,2.688,0.721,5.277,2.027,7.527l90.046-53.747l12.898-37.628L136,219.833L121,181z"/>
<path style="fill:#A8EBFA;" d="M248.559,1.978l-210,121c-2.336,1.333-4.226,3.245-5.532,5.495L121,181h30.897L256,123.153V0
	C253.429,0,250.858,0.659,248.559,1.978z"/>
<path style="fill:#FF7816;" d="M256,406c-4.143-2.302-135.559-75.311-127.285-70.714c-2.381-1.323-4.31-3.239-5.643-5.505
	c-1.334-2.266-2.072-4.883-2.072-7.607c0-3.072,0-146.285,0-141.174l67.5,7.5L256,256l30,75L256,406z"/>
<path style="fill:#FF4B00;" d="M256,406c4.143-2.302,135.559-75.311,127.285-70.714c2.381-1.323,4.31-3.239,5.643-5.505
	c1.334-2.266,2.072-4.883,2.072-7.607c0-3.072,0-146.285,0-141.174l-97.5,7.5L256,256C256,260.838,256,415.559,256,406z"/>
<path style="fill:#FF9F00;" d="M248.715,110.047L121,181l135,75l135-75l-127.715-70.953
	C258.754,107.53,253.246,107.53,248.715,110.047z"/>
<path style="fill:#FF7816;" d="M391,181l-127.715-70.953c-2.265-1.258-4.775-1.887-7.285-1.887V256L391,181z"/>
<g>
</g>
<g>
</g>
<g>
</g>
<g>
</g>
<g>
</g>
<g>
</g>
<g>
</g>
<g>
</g>
<g>
</g>
<g>
</g>
<g>
</g>
<g>
</g>
<g>
</g>
<g>
</g>
<g>
</g>
</svg>
