<svg height="512pt" viewBox="0 -43 512 512" width="512pt" xmlns="http://www.w3.org/2000/svg"><path d="m256 0-256 70.007812v332.753907c0 3.664062 1.179688 7.289062 3.566406 10.070312 2.996094 3.488281 7.195313 5.28125 11.433594 5.28125 1.988281 0 3.984375-.394531 5.871094-1.195312l111.542968-47.441407h247.171876l111.542968 47.441407c1.886719.800781 3.882813 1.195312 5.871094 1.195312 4.238281 0 8.441406-1.796875 11.4375-5.285156 2.386719-2.78125 3.5625-6.402344 3.5625-10.066406v-332.753907zm0 0" fill="#88ffed"/><path d="m256 0v369.476562h123.585938l111.542968 47.441407c1.886719.800781 3.882813 1.195312 5.871094 1.195312 4.238281 0 8.441406-1.796875 11.4375-5.285156 2.386719-2.78125 3.5625-6.402344 3.5625-10.066406v-332.753907zm0 0" fill="#14b8b3"/><path d="m390.835938 201.550781-132.246094-44.105469c-1.679688-.5625-3.5-.5625-5.179688 0l-132.246094 44.105469c-3.34375 1.113281-5.597656 4.242188-5.597656 7.765625v164.703125c0 3.539063 2.277344 6.675781 5.636719 7.78125l132.246094 43.378907c.828125.269531 1.691406.40625 2.550781.40625s1.722656-.136719 2.550781-.40625l132.246094-43.378907c3.359375-1.105469 5.636719-4.242187 5.636719-7.78125v-164.703125c0-3.523437-2.253906-6.652344-5.597656-7.765625zm0 0" fill="#7fcafc"/><path d="m256 252.695312-140.023438-45.929687c-.265624.808594-.410156 1.667969-.410156 2.550781v164.703125c0 3.539063 2.273438 6.675781 5.636719 7.78125l132.242187 43.378907c.832032.269531 1.691407.40625 2.554688.40625zm0 0" fill="#f2f2f2"/><path d="m256 252.695312v172.890626c.859375 0 1.722656-.136719 2.550781-.40625l132.246094-43.378907c3.359375-1.105469 5.636719-4.242187 5.636719-7.78125v-164.703125c0-.882812-.144532-1.742187-.410156-2.550781zm0 0" fill="#83d8f0"/></svg>