<?xml version="1.0" encoding="iso-8859-1"?>
<!-- Generator: Adobe Illustrator 21.0.0, SVG Export Plug-In . SVG Version: 6.00 Build 0)  -->
<svg version="1.1" id="Capa_1" xmlns="http://www.w3.org/2000/svg" xmlns:xlink="http://www.w3.org/1999/xlink" x="0px" y="0px"
	 viewBox="0 0 512 512" style="enable-background:new 0 0 512 512;" xml:space="preserve">
<polygon style="fill:#EBEBEB;" points="477.165,127.684 256.006,0 34.847,127.684 34.297,128 34.297,384 34.367,384.047 
	256.006,512 477.633,384.035 477.703,384 477.703,128 "/>
<polygon style="fill:#FFA638;" points="477.165,127.684 256.006,0 256.006,255.38 256.006,256.082 256.006,512 477.633,384.035 
	477.703,384 477.703,128 "/>
<polygon style="fill:#CCCCCC;" points="256.006,255.38 256.006,256.082 34.367,384.047 34.297,384 34.297,128 34.847,127.684 "/>
<polygon style="fill:#FFA638;" points="477.703,128 477.703,384 477.633,384.035 256.006,256.082 256.006,255.38 477.165,127.684 
	"/>
<polygon style="fill:#ED8300;" points="477.703,128 477.703,384 477.633,384.035 256.006,256.082 256.006,255.38 477.165,127.684 
	"/>
<g>
</g>
<g>
</g>
<g>
</g>
<g>
</g>
<g>
</g>
<g>
</g>
<g>
</g>
<g>
</g>
<g>
</g>
<g>
</g>
<g>
</g>
<g>
</g>
<g>
</g>
<g>
</g>
<g>
</g>
</svg>
