<?xml version="1.0" encoding="iso-8859-1"?>
<!-- Generator: Adobe Illustrator 19.0.0, SVG Export Plug-In . SVG Version: 6.00 Build 0)  -->
<svg version="1.1" id="Layer_1" xmlns="http://www.w3.org/2000/svg" xmlns:xlink="http://www.w3.org/1999/xlink" x="0px" y="0px"
	 viewBox="0 0 512 512" style="enable-background:new 0 0 512 512;" xml:space="preserve">
<polygon style="fill:#F7B239;" points="416.917,144.283 256.006,334.726 95.072,144.271 256.006,51.373 "/>
<polygon style="fill:#F95428;" points="416.917,144.283 416.917,333.942 255.994,426.851 255.983,426.84 194.889,334.726 
	256.006,237.181 "/>
<g>
	<polygon style="fill:#2BA5F7;" points="256.006,237.181 255.983,426.84 95.083,333.872 95.072,144.271 	"/>
	<path style="fill:#2BA5F7;" d="M499.903,96.577c-2.389-4.136-7.679-5.554-11.814-3.165l-30.949,17.87
		c-20.216-32.174-47.985-59.22-80.769-78.544C340.031,11.321,298.407,0,255.994,0c-42.407,0-84.029,11.321-120.366,32.738
		c-32.784,19.323-60.552,46.369-80.768,78.544l-30.948-17.87c-4.135-2.388-9.426-0.971-11.815,3.165
		c-2.388,4.136-0.971,9.426,3.165,11.815l30.937,17.863c-18.069,34.064-27.593,72.3-27.593,111.146
		c0,128.001,101.829,232.649,228.728,237.226v28.725c0,4.776,3.872,8.649,8.649,8.649s8.649-3.872,8.649-8.649v-28.726
		c126.916-4.564,228.763-109.216,228.763-237.226c0-38.846-9.525-77.084-27.593-111.147l30.937-17.862
		C500.874,106.002,502.292,100.713,499.903,96.577z M255.994,457.502c-121.359,0-220.091-98.738-220.091-220.102
		c0-38.714,10.185-76.771,29.454-110.06v-0.001c0-0.001,0.001-0.002,0.002-0.003s0.001-0.002,0.002-0.003
		c0-0.001,0.001-0.001,0.001-0.002c19.01-32.857,46.344-60.413,79.05-79.69c33.677-19.849,72.261-30.342,111.581-30.342
		c39.326,0,77.913,10.493,111.592,30.343c32.708,19.278,60.045,46.838,79.057,79.7c19.269,33.288,29.454,71.347,29.454,110.06
		C476.098,358.764,377.36,457.502,255.994,457.502z"/>
</g>
<g>
</g>
<g>
</g>
<g>
</g>
<g>
</g>
<g>
</g>
<g>
</g>
<g>
</g>
<g>
</g>
<g>
</g>
<g>
</g>
<g>
</g>
<g>
</g>
<g>
</g>
<g>
</g>
<g>
</g>
</svg>
