<svg viewBox="0 -17 512.00046 512" xmlns="http://www.w3.org/2000/svg"><path d="m199.390625 225.910156-184.460937 95.730469c-20.054688 10.40625-19.863282 39.164063.324218 49.300781l185.589844 93.210938c34.707031 17.429687 75.605469 17.429687 110.3125 0l185.585938-93.210938c20.191406-10.140625 20.382812-38.894531.328124-49.300781l-184.464843-95.730469c-35.488281-18.417968-77.722657-18.417968-113.214844 0zm0 0" fill="#5fc1bc"/><path d="m199.390625 119.859375-184.460937 95.734375c-20.054688 10.40625-19.863282 39.160156.324218 49.300781l185.589844 93.210938c34.707031 17.429687 75.605469 17.429687 110.3125 0l185.585938-93.210938c20.191406-10.140625 20.382812-38.894531.328124-49.300781l-184.464843-95.730469c-35.488281-18.417969-77.722657-18.417969-113.214844-.003906zm0 0" fill="#7de2e2"/><path d="m311.15625 358.105469 130.1875-65.386719-128.738281-66.808594c-35.488281-18.417968-77.722657-18.417968-113.210938 0l-128.738281 66.808594 130.1875 65.386719c34.707031 17.429687 75.605469 17.429687 110.3125 0zm0 0" fill="#66d3d0"/><path d="m199.390625 13.8125-184.460937 95.730469c-20.054688 10.410156-19.863282 39.164062.324218 49.304687l185.589844 93.210938c34.707031 17.429687 75.605469 17.429687 110.3125 0l185.585938-93.210938c20.191406-10.140625 20.382812-38.894531.328124-49.304687l-184.464843-95.730469c-35.488281-18.417969-77.722657-18.417969-113.214844 0zm0 0" fill="#bdfaff"/><path d="m311.15625 252.058594 130.1875-65.386719-128.738281-66.8125c-35.488281-18.417969-77.722657-18.417969-113.210938 0l-128.738281 66.8125 130.1875 65.386719c34.707031 17.429687 75.605469 17.429687 110.3125 0zm0 0" fill="#a0f0f2"/><path d="m311.15625 252.058594 26.34375-13.230469-24.894531-12.917969c-35.488281-18.417968-77.722657-18.417968-113.214844 0l-24.890625 12.917969 26.34375 13.230469c34.703125 17.429687 75.605469 17.429687 110.3125 0zm0 0" fill="#7de2e2"/></svg>