<svg height="443pt" viewBox="0 -20 443.60441 443" width="443pt" xmlns="http://www.w3.org/2000/svg" xmlns:xlink="http://www.w3.org/1999/xlink"><linearGradient id="a"><stop offset=".322" stop-color="#a163f5"/><stop offset=".466" stop-color="#b074ee"/><stop offset=".752" stop-color="#d8a1dd"/><stop offset=".898" stop-color="#efbad3"/></linearGradient><linearGradient id="b" gradientTransform="matrix(1 0 0 -1 -34.196867 459.348924)" gradientUnits="userSpaceOnUse" x1="245.774" x2="254.775" xlink:href="#a" y1="-80.049" y2="312.991"/><linearGradient id="c" gradientTransform="matrix(1 0 0 -1 -34.196867 459.348924)" gradientUnits="userSpaceOnUse" x1="248.291" x2="257.292" xlink:href="#a" y1="-80.106" y2="312.933"/><linearGradient id="d" gradientTransform="matrix(1 0 0 -1 -34.196867 459.348924)" gradientUnits="userSpaceOnUse" x1="250.814" x2="259.815" xlink:href="#a" y1="-80.164" y2="312.875"/><path d="m437.234375 83.472656-211.800781-82.488281c-2.332032-.9101562-4.921875-.9101562-7.257813 0l-211.800781 82.488281c-3.839844 1.496094-6.37109375 5.195313-6.37109375 9.320313 0 4.121093 2.53124975 7.820312 6.37109375 9.316406l211.800781 82.492187c2.335938.90625 4.925781.90625 7.257813 0l211.800781-82.492187c3.839844-1.496094 6.371094-5.195313 6.371094-9.316406 0-4.125-2.53125-7.824219-6.371094-9.320313zm-215.429687 81.078125-184.25-71.757812 184.25-71.757813 184.246093 71.757813zm0 0" fill="url(#b)"/><path d="m437.324219 193.6875-89.144531-35.714844c-3.3125-1.378906-7.113282-.875-9.953126 1.316406-2.84375 2.191407-4.289062 5.742188-3.796874 9.296876.496093 3.554687 2.859374 6.570312 6.191406 7.902343l.121094.050781 65.644531 26.300782-184.582031 71.890625-184.765626-71.960938 68.046876-27.671875c5.128906-2.054687 7.621093-7.875 5.566406-13.003906-2.054688-5.125-7.875-7.617188-13.003906-5.5625l-.097657.039062-91.316406 37.136719c-3.792969 1.542969-6.265625 5.242188-6.234375 9.335938.03125 4.097656 2.554688 7.761719 6.371094 9.246093l211.800781 82.488282c2.335937.910156 4.925781.910156 7.257813 0l211.800781-82.488282c3.824219-1.488281 6.347656-5.164062 6.371093-9.269531.019532-4.105469-2.472656-7.804687-6.28125-9.332031zm0 0" fill="url(#c)"/><path d="m437.265625 303.847656-86.726563-34.128906c-5.125-2.066406-10.949218.414062-13.015624 5.539062-2.0625 5.121094.417968 10.945313 5.539062 13.011719l.152344.058594 62.960937 24.777344-184.371093 71.800781-184.722657-71.941406 67.460938-27.339844c5.121093-2.074219 7.585937-7.902344 5.511719-13.023438-2.074219-5.117187-7.902344-7.585937-13.023438-5.511718l-90.785156 36.792968c-3.800782 1.535157-6.2734378 5.238282-6.246094 9.335938s2.554688 7.761719 6.371094 9.25l211.800781 82.488281c2.335937.910157 4.925781.910157 7.257813 0l211.800781-82.488281c3.835937-1.496094 6.363281-5.183594 6.371093-9.300781.007813-4.117188-2.507812-7.816407-6.339843-9.324219zm0 0" fill="url(#d)"/></svg>