<svg height="1126pt" viewBox="0 -71 1126 1126" width="1126pt" xmlns="http://www.w3.org/2000/svg"><path d="m559.101562 909.59375-559.101562-250.601562 559.101562-250.597657 559 250.597657zm0 0" fill="#29abe2"/><path d="m559.101562 774.59375-559.101562-250.601562 559.101562-250.597657 559 250.597657zm0 0" fill="#c69c6d"/><path d="m559.101562 639.695312-559.101562-250.601562 559.101562-250.601562 559 250.601562zm0 0" fill="#a67c52"/><path d="m416.199219 955.09375-386.699219-173.300781 15.800781-35.199219 386.699219 173.300781zm0 0" fill="#d5e174"/><path d="m483 984.992188-38.398438-17.199219 15.796876-35.199219 38.300781 17.199219zm0 0" fill="#d5e174"/><path d="m502.601562 262.792969c-19.703124 48.699219-106 96.601562-165.402343 61.601562-83.300781-48.902343-70.199219-148.800781-148.800781-195.902343 0 0 111.203124-108.898438 241.203124-37.796876 70.199219 38.398438 92.699219 123.296876 73 172.097657zm0 0" fill="#a7cc46"/><path d="m487.101562 422.292969c-27.101562-98.699219-81.703124-187.5-157.402343-256.300781l25.902343-28.5c81.097657 73.601562 139.597657 168.902343 168.597657 274.5zm0 0" fill="#8c6239"/><path d="m615.5 196.09375c19.601562 48.699219 106 96.699219 165.398438 61.699219 83.203124-48.898438 70.203124-148.898438 148.703124-195.898438 0 0-111.203124-108.902343-241.203124-37.800781-70.097657 38.398438-92.5 123.300781-72.898438 172zm0 0" fill="#a7cc46"/><path d="m615.898438 430.59375-38.097657-5.800781 2.097657-14c20.300781-130.800781 84.703124-250.699219 182.601562-339.800781l25.898438 28.5c-91.296876 83.203124-151.5 195.101562-170.398438 317.203124zm0 0" fill="#8c6239"/><path d="m1110.199219 310.292969-218.5-98 15.800781-35.097657 218.5 97.898438zm0 0" fill="#d5e174"/><g fill="#c69c6d"><path d="m655.398438 408.394531h38.601562v38.597657h-38.601562zm0 0"/><path d="m404.800781 408.394531h38.597657v38.597657h-38.597657zm0 0"/></g></svg>