<?xml version="1.0" encoding="iso-8859-1"?>
<!-- Generator: Adobe Illustrator 19.0.0, SVG Export Plug-In . SVG Version: 6.00 Build 0)  -->
<svg version="1.1" id="Capa_1" xmlns="http://www.w3.org/2000/svg" xmlns:xlink="http://www.w3.org/1999/xlink" x="0px" y="0px"
	 viewBox="0 0 512.001 512.001" style="enable-background:new 0 0 512.001 512.001;" xml:space="preserve">
<path style="fill:#FF80BD;" d="M502.044,361.502l-93.906-45.333l-144.48,69.747c-4.838,2.336-10.477,2.336-15.315,0l-144.48-69.747
	L9.956,361.502c-13.275,6.409-13.275,25.315,0,31.724l238.386,115.081c4.838,2.335,10.477,2.335,15.315,0l238.386-115.081
	C515.319,386.817,515.319,367.911,502.044,361.502z"/>
<g>
	<path style="fill:#F962B1;" d="M106.922,339.675L106.922,339.675l119.179,57.533c4.838,2.335,10.477,2.335,15.315,0l167.297-80.762
		l-0.575-0.277l-144.48,69.748c-4.838,2.336-10.477,2.336-15.315,0c-4.391-2.12-137.226-66.246-144.479-69.748l0,0h-0.001
		l-22.817,11.015l0,0L106.922,339.675z"/>
	<path style="fill:#F962B1;" d="M31.333,380.419c0,0-18.244-7.501-20.454-19.362l-0.923,0.446c-2.074,1.001-3.824,2.308-5.25,3.824
		c-7.7,8.188-5.95,22.493,5.251,27.9c4.925,2.378,212.817,102.737,238.386,115.08c4.704,2.271,10.361,2.392,15.315,0l16.296-7.867
		L31.333,380.419z"/>
</g>
<path style="fill:#008CFF;" d="M502.044,240.138l-93.906-45.334l-144.48,69.748c-4.838,2.336-10.477,2.336-15.315,0l-144.48-69.748
	L9.956,240.138c-13.275,6.408-13.275,25.315,0,31.724l238.386,115.08c4.838,2.336,10.477,2.336,15.315,0l238.386-115.08
	C515.319,265.454,515.319,246.547,502.044,240.138z"/>
<path style="fill:#00C3FF;" d="M248.343,3.694L9.957,118.775c-13.275,6.408-13.275,25.316,0,31.724L248.343,265.58
	c4.838,2.335,10.477,2.335,15.315,0l238.386-115.081c13.275-6.408,13.275-25.316,0-31.724L263.658,3.694
	C258.82,1.358,253.181,1.358,248.343,3.694z"/>
<path style="fill:#00AAF0;" d="M6.202,121.202c-9.363,7.844-8.118,23.565,3.755,29.296l238.386,115.081
	c4.838,2.335,10.477,2.335,15.315,0l16.296-7.867L31.333,137.692C31.333,137.692,14.428,130.661,6.202,121.202z"/>
<g>
	<path style="fill:#0385DD;" d="M106.922,218.312L106.922,218.312l119.179,57.533c4.838,2.335,10.477,2.335,15.315,0l167.297-80.762
		l-0.575-0.277l-144.48,69.748c-4.838,2.336-10.477,2.336-15.315,0c-4.391-2.12-137.226-66.246-144.479-69.748l0,0h-0.001
		L81.046,205.82l0,0L106.922,218.312z"/>
	<path style="fill:#0385DD;" d="M31.333,259.055c0,0-18.244-7.501-20.454-19.362l-0.923,0.446c-2.074,1.001-3.824,2.308-5.25,3.824
		c-7.7,8.188-5.95,22.493,5.251,27.9l203.551,98.264l34.834,16.816c4.477,2.162,10.162,2.488,15.315,0l16.296-7.867L31.333,259.055z
		"/>
</g>
<g>
</g>
<g>
</g>
<g>
</g>
<g>
</g>
<g>
</g>
<g>
</g>
<g>
</g>
<g>
</g>
<g>
</g>
<g>
</g>
<g>
</g>
<g>
</g>
<g>
</g>
<g>
</g>
<g>
</g>
</svg>
