<?xml version="1.0" encoding="iso-8859-1"?>
<!-- Generator: Adobe Illustrator 19.0.0, SVG Export Plug-In . SVG Version: 6.00 Build 0)  -->
<svg version="1.1" id="Layer_1" xmlns="http://www.w3.org/2000/svg" xmlns:xlink="http://www.w3.org/1999/xlink" x="0px" y="0px"
	 viewBox="0 0 473.658 473.658" style="enable-background:new 0 0 473.658 473.658;" xml:space="preserve">
<circle style="fill:#B9E8EA;" cx="236.829" cy="236.827" r="236.827"/>
<path style="fill:#AD8C73;" d="M236.683,236.816c-118.096-1.245-236.24,15.257-236.008,18.272
	c9.33,122.262,111.488,218.571,236.139,218.571c122.628,0,223.492-93.198,235.623-212.625
	C472.837,257.051,354.783,238.061,236.683,236.816z"/>
<path style="fill:#474747;" d="M401.834,339.138c-35.78,2.285-98.822,4.805-145.125,6.511l-0.621,75.192
	c0.602,0,64.848-1.44,131.166-1.099c27.415-22.576,49.62-51.217,64.672-83.837C428.665,337.62,401.834,339.138,401.834,339.138z"/>
<g>
	<path style="fill:#91551F;" d="M323.999,90.486c0.946-13.691-16.521-21.716-16.521-21.716C298.51,64.048,285.29,68.3,285.29,68.3
		c-2.835,1.888-7.558,2.835-7.558,2.835c-4.252,2.831-29.266,21.716-29.266,21.716c-8.496,5.194-9.442,11.327-9.442,11.327
		l0.471,20.298c-11.331,19.352-58.536,39.654-58.536,39.654c-19.827,7.079-42.014,17.468-42.014,17.468
		c-5.191,2.831-4.248,5.191-4.248,5.191c4.719,15.579,36.349,34.464,36.349,34.464c-2.831,0.471-9.439,8.025-9.439,8.025
		c-4.252,0.942-8.025,0.471-8.025,0.471c-5.669-0.471-3.306,4.248-3.306,4.248c1.062,2.12,0.946,4.248,0.946,4.248
		c-4.723,0.942-0.475,6.137-0.475,6.137c5.665,39.654-16.05,82.143-16.05,82.143c2.36,6.133,8.967,8.496,8.967,8.496
		c21.248,3.777,59.482-5.194,77.892-9.914c18.414-4.723,55.705-19.356,55.705-19.356c-0.942-8.025,0-46.262,0-46.262
		C276.79,237.773,323.999,90.486,323.999,90.486z"/>
	<path style="fill:#91551F;" d="M277.258,305.751c0,0-96.862,28.608-116.218,29.075l9.057,19.076c0,0,2.838,3.781,1.892,8.971
		l-8.025,32.572c0,0-10.385,20.77,8.496,20.295c0,0,79.776,4.723,82.611,4.723s20.302-5.194,24.075-6.608
		c3.773-1.414,16.047-8.496,18.41-16.05C299.919,390.254,299.919,322.748,277.258,305.751z"/>
</g>
<g>
	<path style="fill:#683A15;" d="M277.258,305.751c0,0-96.301,30.216-115.658,30.687l6.612,5.194c0,0,59.482,2.831,90.169,0.471
		c10.392-0.797,21.241-16.05,26.431-6.133c5.194,9.91-5.665,77.892-5.665,77.892c3.777-1.414,16.047-8.496,18.41-16.05
		C299.919,390.254,299.919,322.748,277.258,305.751z"/>
	<path style="fill:#683A15;" d="M313.494,72.544c0,0-44.258,21.245-39.303,32.572c0,0,12.038,16.993,12.038,26.199
		c0,0,2.835,6.372-3.538,8.496c0,0-43.196,22.662-52.399,53.109c0,0-35.406,95.595-31.158,134.542l78.127-21.716
		c0,0-5.897-107.161,31.629-158.853C308.887,146.898,344.648,95.913,313.494,72.544z"/>
</g>
<path style="fill:#91551F;" d="M320.928,88.834c0,0-21.951,21.951-20.538,47.444c0,0,0,4.959-2.831,8.496
	c0,0-41.068,85.681-38.944,101.26c0,0,0,14.166,9.207,15.579c0,0,13.455,4.248,21.241-9.914c0,0,11.327-45.32,13.459-55.234
	l17.699-63.73C320.222,132.736,333.673,87.416,320.928,88.834z"/>
<g>
	<path style="fill:#683A15;" d="M321.1,88.83c0,0-21.263,21.267-19.895,45.959c0,0,3.351,6.555,0.606,9.981
		c0,0-33.989,82.14-38.241,97.719c0,0-2.838,12.341,6.084,13.713c0,0,13.029,4.117,20.575-9.603c0,0,10.976-43.903,13.036-53.506
		l17.146-61.737C320.416,131.36,333.448,87.461,321.1,88.83z"/>
	<path style="fill:#683A15;" d="M260.029,135.567c0,0-16.697-19.248-20.534-11.095c-3.773,8.025-24.547,21.245-24.547,21.245
		c-18.41,13.216-60.895,28.798-60.895,28.798c-21.245,8.496-19.356,12.273-19.356,12.273c2.752,2.524,9.476,10.471,17.939,16.521
		c8.96,6.406,19.592,10.856,19.592,10.856c-3.541-10.62-24.786-20.538-24.786-20.538c26.203-1.414,43.196,26.91,43.196,26.91
		s20.534-20.534,21.951-31.158c0,0-2.124-14.162,2.831-18.41C215.416,170.973,252.95,139.815,260.029,135.567z"/>
</g>
<path style="fill:#77421E;" d="M277.733,71.13c0,0-25.964,17.228-29.266,21.716c0,0-7.086,6.14-9.442,11.327
	c0,0,28.798-10.385,42.956,12.984l35.406-40.361C317.387,76.796,305.349,57.679,277.733,71.13z"/>
<path style="fill:#683A15;" d="M175.41,247.448c-1.769-6.372-15.22-17.228-18.53-17.464l-5.422-0.236c0,0-1.657,0.942-1.657,1.888
	s1.657,3.306,1.421,6.612c0,0-4.252,0.939-0.475,6.137c0,0,7.498-0.471,19.352,9.439c0,0,2.977,1.361,4.727-0.707
	C175.87,251.872,176.076,249.845,175.41,247.448z"/>
<path style="fill:#77421E;" d="M175.41,247.448c-1.324-4.753-4.069-10.796-9.644-15.665c-0.161-0.138-0.954-5.254-1.242-5.4
	c-0.393-0.202-2.592,2.808-2.921,2.891c-1.503,0.385-4.308,0.606-4.959,0.561l-5.187-0.086c0,0-1.657,0.942-1.657,1.888
	s1.657,3.306,1.421,6.612c0,0,12.685,3.007,23.163,14.588C175.481,254.044,176.076,249.845,175.41,247.448z"/>
<g>
</g>
<g>
</g>
<g>
</g>
<g>
</g>
<g>
</g>
<g>
</g>
<g>
</g>
<g>
</g>
<g>
</g>
<g>
</g>
<g>
</g>
<g>
</g>
<g>
</g>
<g>
</g>
<g>
</g>
</svg>
