<?xml version="1.0" encoding="iso-8859-1"?>
<!-- Generator: Adobe Illustrator 19.0.0, SVG Export Plug-In . SVG Version: 6.00 Build 0)  -->
<svg version="1.1" id="Capa_1" xmlns="http://www.w3.org/2000/svg" xmlns:xlink="http://www.w3.org/1999/xlink" x="0px" y="0px"
	 viewBox="0 0 512 512" style="enable-background:new 0 0 512 512;" xml:space="preserve">
<g>
	<path style="fill:#66757F;" d="M113.778,384c0,0-28.444,56.889-28.444,85.333S142.222,512,256,512s170.667-14.222,170.667-42.667
		S398.222,384,398.222,384L113.778,384L113.778,384z"/>
	<path style="fill:#66757F;" d="M128,85.333c-42.667,0-42.667,14.222-56.889,142.222c-14.136,127.218,0,142.222,56.889,142.222
		C156.444,369.778,156.444,85.333,128,85.333"/>
	<path style="fill:#66757F;" d="M384,85.333c42.667,0,42.667,14.222,56.889,142.222c14.136,127.218,0,142.222-56.889,142.222
		C355.556,369.778,355.556,85.333,384,85.333"/>
</g>
<path style="fill:#CCD6DD;" d="M113.778,42.667C113.778,42.667,128,0,256,0s142.222,42.667,142.222,42.667
	S412.444,128,412.444,241.778s-14.222,199.111-14.222,199.111S384,469.333,256,469.333s-142.222-28.444-142.222-28.444
	s-14.222-42.667-14.222-199.111S113.778,42.667,113.778,42.667"/>
<g>
	<path style="fill:#66757F;" d="M398.222,113.778c0-14.222-42.667-56.889-142.222-56.889s-142.222,42.667-142.222,56.889
		c0,11.477,64.683,22.926,89.757,26.936C213.319,178.461,213.333,256,213.333,256c11.449-45.767,4.48-100.679,1.323-120.419
		c2.873-8.406,12.061-21.803,41.344-21.803c42.667,0,42.667,28.444,42.667,28.444h0.028c-3.328,23.566-8.036,72.376,2.304,113.778
		c0,0,0.028-78.095,9.913-115.683C337.45,135.993,398.222,124.899,398.222,113.778"/>
	<path style="fill:#66757F;" d="M199.111,284.444c0-14.222,28.444-42.667,56.889-42.667c28.444,0,56.889,28.444,56.889,42.667
		S298.667,298.667,256,298.667S199.111,298.667,199.111,284.444"/>
	<path style="fill:#66757F;" d="M170.667,341.333c0,0,28.444-28.444,85.333-28.444s85.333,28.444,85.333,28.444
		S312.889,327.111,256,327.111S170.667,341.333,170.667,341.333"/>
	<path style="fill:#66757F;" d="M170.667,369.778c0-14.222,28.444-28.444,85.333-28.444s85.333,14.222,85.333,28.444
		S327.111,384,256,384S170.667,384,170.667,369.778"/>
</g>
<g>
</g>
<g>
</g>
<g>
</g>
<g>
</g>
<g>
</g>
<g>
</g>
<g>
</g>
<g>
</g>
<g>
</g>
<g>
</g>
<g>
</g>
<g>
</g>
<g>
</g>
<g>
</g>
<g>
</g>
</svg>
