<?xml version="1.0" encoding="iso-8859-1"?>
<!-- Generator: Adobe Illustrator 19.0.0, SVG Export Plug-In . SVG Version: 6.00 Build 0)  -->
<svg version="1.1" id="Capa_1" xmlns="http://www.w3.org/2000/svg" xmlns:xlink="http://www.w3.org/1999/xlink" x="0px" y="0px"
	 viewBox="0 0 460 460" style="enable-background:new 0 0 460 460;" xml:space="preserve">
<g id="XMLID_244_">
	<path id="XMLID_245_" style="fill:#EBE5DD;" d="M68.5,260c0,110.457,89.543,200,200,200h123l-1.625-200H68.5z M230,380h-40v-40h40
		V380z M310,300h40v40h-40V300z M280,380h40v40h-40V380z"/>
	<path id="XMLID_312_" style="fill:#C0AB91;" d="M308.474,203.026c-17.999,0-34.647-5.735-48.24-15.465
		C248.113,203.939,230,220,230,220v40h161.5V120C391.5,165.854,354.329,203.026,308.474,203.026z"/>
	<path id="XMLID_333_" style="fill:#C0AB91;" d="M230,0v92.882c11.243-32.53,42.113-55.908,78.474-55.908
		c45.854,0,83.026,37.172,83.026,83.026V0H230z"/>
	<path id="XMLID_334_" style="fill:#D9CCBC;" d="M151.526,36.974c36.361,0,67.231,23.377,78.474,55.908V0H68.5v120
		C68.5,74.146,105.672,36.974,151.526,36.974z"/>
	<path id="XMLID_337_" style="fill:#D9CCBC;" d="M230,220c0,0-18.113-16.061-30.234-32.439c-13.593,9.73-30.242,15.465-48.24,15.465
		c-45.854,0-83.026-37.172-83.026-83.026v140H230V220z"/>
	<rect id="XMLID_338_" x="280" y="380" style="fill:#D9CCBC;" width="40" height="40"/>
	<rect id="XMLID_340_" x="190" y="340" style="fill:#D9CCBC;" width="40" height="40"/>
	<rect id="XMLID_341_" x="310" y="300" style="fill:#D9CCBC;" width="40" height="40"/>
	<path id="XMLID_348_" style="fill:#3D9AE2;" d="M260.234,187.561c-13.868-9.928-24.556-24.015-30.234-40.442V220
		C230,220,248.113,203.939,260.234,187.561z"/>
	<path id="XMLID_350_" style="fill:#78B9EB;" d="M199.766,187.561C211.887,203.939,230,220,230,220v-72.882
		C224.322,163.546,213.634,177.633,199.766,187.561z"/>
	<path id="XMLID_351_" style="fill:#FFEB99;" d="M308.474,36.974c-36.361,0-67.231,23.377-78.474,55.908v54.236
		c5.678,16.428,16.366,30.515,30.234,40.442c13.593,9.73,30.242,15.465,48.24,15.465c45.854,0,83.026-37.172,83.026-83.026
		S354.329,36.974,308.474,36.974z M308.47,160c-22.056,0-40-17.944-40-40s17.944-40,40-40c22.056,0,40,17.944,40,40
		S330.526,160,308.47,160z"/>
	<path id="XMLID_440_" style="fill:#FFF5CC;" d="M151.526,203.026c17.999,0,34.647-5.735,48.24-15.465
		c13.868-9.928,24.556-24.015,30.234-40.442V92.882c-11.243-32.53-42.113-55.908-78.474-55.908C105.672,36.974,68.5,74.146,68.5,120
		S105.672,203.026,151.526,203.026z M151.53,80c22.056,0,40,17.944,40,40s-17.944,40-40,40s-40-17.944-40-40S129.474,80,151.53,80z"
		/>
	<path id="XMLID_444_" style="fill:#3D9AE2;" d="M308.47,80v80c22.056,0,40-17.944,40-40S330.526,80,308.47,80z"/>
	<path id="XMLID_445_" style="fill:#3D9AE2;" d="M191.53,120c0-22.056-17.944-40-40-40v80C173.587,160,191.53,142.056,191.53,120z"
		/>
	<path id="XMLID_446_" style="fill:#78B9EB;" d="M151.53,160V80c-22.056,0-40,17.944-40,40S129.474,160,151.53,160z"/>
	<path id="XMLID_447_" style="fill:#78B9EB;" d="M268.47,120c0,22.056,17.944,40,40,40V80C286.413,80,268.47,97.944,268.47,120z"/>
</g>
<g>
</g>
<g>
</g>
<g>
</g>
<g>
</g>
<g>
</g>
<g>
</g>
<g>
</g>
<g>
</g>
<g>
</g>
<g>
</g>
<g>
</g>
<g>
</g>
<g>
</g>
<g>
</g>
<g>
</g>
</svg>
