<svg height="1135pt" viewBox="0 0 1135 1135.998" width="1135pt" xmlns="http://www.w3.org/2000/svg"><path d="m1117.597656 568.097656c0 303.203125-245.792968 549-549 549-303.203125 0-549-245.796875-549-549s245.796875-549 549-549c303.207032 0 549 245.796875 549 549zm0 0" fill="#c4e9fb"/><g fill="#29abe2"><path d="m1004 568.097656c0 240.464844-194.9375 435.398438-435.402344 435.398438s-435.398437-194.933594-435.398437-435.398438 194.933593-435.402344 435.398437-435.402344 435.402344 194.9375 435.402344 435.402344zm0 0"/><path d="m568.597656 1135.996094c-313.597656.101562-568-254.097656-568.097656-567.699219 0-199 104.097656-383.5 274.398438-486.300781l19.601562 32.402344c-250.5 151.5-330.699219 477.5-179.101562 728.097656 127.601562 210.800781 383.5 305.902344 617.800781 229.699218l11.699219 36c-56.898438 18.402344-116.398438 27.902344-176.300782 27.800782zm0 0"/><path d="m784 1093.695312-14.300781-35c12.300781-5 24.601562-10.597656 36.5-16.597656l17 33.800782c-12.800781 6.398437-26 12.398437-39.199219 17.796874zm0 0"/><path d="m862.398438 1054.195312-19.597657-32.398437c250.5-151.601563 330.699219-477.601563 179.097657-728.101563-127.597657-210.796874-383.5-305.898437-617.800782-229.597656l-11.699218-36c298.300781-97.199218 618.902343 65.898438 716.101562 364.097656 81.699219 251.101563-20.199219 525.402344-246.101562 662zm0 0"/><path d="m331 94.097656-17-33.800781c12.800781-6.398437 26-12.398437 39.199219-17.800781l14.398437 35c-12.296875 5-24.597656 10.601562-36.597656 16.601562zm0 0"/></g><path d="m568.597656 132.695312c-92.796875-.097656-183.296875 29.601563-258 84.703126l-44.898437 123.5v56.796874l56.800781 37.902344 94.699219-56.800781 56.800781 37.898437-75.699219 94.703126-19 94.597656 151.398438 113.601562 56.800781 56.800782 37.898438-56.800782-75.699219-94.699218 18.898437-94.703126 132.5-18.898437 56.800782-56.800781 75.699218-113.597656 72.203125-48.203126c-82.5-101.296874-206.402343-160.097656-337.203125-160zm0 0" fill="#a7cc46"/><path d="m909.398438 605.996094 37.902343 94.699218 31.898438 12.800782c29.800781-84.300782 32.898437-175.699219 9-261.898438l-78.699219 78.699219zm0 0" fill="#a7cc46"/><path d="m607.699219 1001.597656c107.101562-9.5 206.800781-58.5 279.898437-137.300781l-72.898437-31.199219-75.699219-37.902344-94.699219 18.902344-94.703125 94.699219zm0 0" fill="#a7cc46"/><path d="m227.898438 757.398438-42.699219 17c35.898437 66.5 88.398437 122.597656 152.5 162.796874l22.699219-28.398437-18.898438-94.601563zm0 0" fill="#a7cc46"/></svg>