<?xml version="1.0" encoding="iso-8859-1"?>
<!-- Generator: Adobe Illustrator 19.0.0, SVG Export Plug-In . SVG Version: 6.00 Build 0)  -->
<svg version="1.1" id="Capa_1" xmlns="http://www.w3.org/2000/svg" xmlns:xlink="http://www.w3.org/1999/xlink" x="0px" y="0px"
	 viewBox="0 0 512 512" style="enable-background:new 0 0 512 512;" xml:space="preserve">
<path style="fill:#FEDB41;" d="M226,512c-8.291,0-15-6.709-15-15v-85.082c0-8.291,6.709-15,15-15s15,6.709,15,15V497
	C241,505.291,234.291,512,226,512z"/>
<path style="fill:#FCBF29;" d="M316,512c-8.291,0-15-6.709-15-15v-61c0-8.291,6.709-15,15-15s15,6.709,15,15v61
	C331,505.291,324.291,512,316,512z"/>
<path style="fill:#EB4F00;" d="M30,30v30c0,49.706,41.294,90,91,90h30V30C107.176,30,72.535,30,30,30z"/>
<path style="fill:#FF6200;" d="M121,90H15C6.716,90,0,83.284,0,75l0,0C0,33.579,33.579,0,75,0h46l15,10.761V78.28L121,90z"/>
<path style="fill:#10BB67;" d="M391,135v316h-75c-21,0-41.1-3.3-60-9.3c-78.3-25.201-135-99-135-185.7V0h135
	C330.7,0,391,60.3,391,135z"/>
<path style="fill:#0CA656;" d="M391,135v316h-75c-21,0-41.1-3.3-60-9.3V0C330.7,0,391,60.3,391,135z"/>
<path style="fill:#FEDB41;" d="M256,60c-41.4,0-75,33.6-75,75s33.6,75,75,75s75-33.6,75-75S297.4,60,256,60z"/>
<path style="fill:#FCBF29;" d="M331,135c0,41.4-33.6,75-75,75V60C297.4,60,331,93.6,331,135z"/>
<path style="fill:#10BB67;" d="M512,436c0-24.853-20.147-45-45-45h-14.727l-1.472-10.8c-4.501-24.302-24.701-43.5-49.001-48.001
	l-10.199-1.8l-1.8-10.199c-5.4-29.702-30.601-49.2-59.101-49.2c-35.099,0-59.7,30.3-59.7,63.3c0,59.399,45.601,115.499,120,116.7
	h106C505.748,451,512,443.439,512,436z"/>
<path style="fill:#57555C;" d="M271,135c0,8.399-6.599,15-15,15s-15-6.601-15-15c0-8.401,6.599-15,15-15S271,126.599,271,135z"/>
<path style="fill:#3C3A41;" d="M271,135c0,8.399-6.599,15-15,15v-30C264.401,120,271,126.599,271,135z"/>
<path style="fill:#896748;" d="M512,497c0,8.399-6.599,15-15,15H16c-8.401,0-15-6.601-15-15c0-8.401,6.599-15,15-15h481
	C505.401,482,512,488.599,512,497z"/>
<path style="fill:#73553A;" d="M512,497c0,8.399-6.599,15-15,15H256v-30h241C505.401,482,512,488.599,512,497z"/>
<g>
</g>
<g>
</g>
<g>
</g>
<g>
</g>
<g>
</g>
<g>
</g>
<g>
</g>
<g>
</g>
<g>
</g>
<g>
</g>
<g>
</g>
<g>
</g>
<g>
</g>
<g>
</g>
<g>
</g>
</svg>
