<svg height="512pt" viewBox="0 0 512 512" width="512pt" xmlns="http://www.w3.org/2000/svg"><path d="m466 120h-150c-8.285156 0-15-6.714844-15-15l3-4v-82l-3-4c0-8.285156 6.714844-15 15-15h60c57.898438 0 105 47.101562 105 105 0 8.285156-6.714844 15-15 15zm-135-30h118.492188c-6.96875-34.191406-37.273438-60-73.492188-60h-45l-3 3v53zm0 0" fill="#fea832"/><path d="m376 180h-60c-8.285156 0-15-6.714844-15-15l3-4v-52l-1-4c0-8.285156 4.714844-15 13-15h120c8.285156 0 15 6.714844 15 15 0 41.355469-33.644531 75-75 75zm-45-30h45c19.558594 0 36.238281-12.539062 42.429688-30h-87.429688l-4 2v24zm0 0" fill="#fe9923"/><path d="m271 75c0 8.285156-6.714844 15-15 15s-15-6.714844-15-15 6.714844-15 15-15 15 6.714844 15 15zm0 0" fill="#966857"/><path d="m136 512c-41.355469 0-75-33.644531-75-75v-61c0-8.285156 6.714844-15 15-15h60c8.285156 0 15 6.714844 15 15v121c0 8.285156-6.714844 15-15 15zm-45-121v46c0 19.554688 12.539062 36.238281 30 42.429688v-88.429688zm0 0" fill="#966857"/><g fill="#805142"><path d="m196 482c-41.355469 0-75-33.644531-75-75v-31c0-8.285156 6.714844-15 15-15h60c8.285156 0 15 6.714844 15 15v91c0 8.285156-6.714844 15-15 15zm-45-91v16c0 19.554688 12.539062 36.238281 30 42.429688v-58.429688zm0 0"/><path d="m497 391h-301c-8.285156 0-15-6.714844-15-15s6.714844-15 15-15h301c8.285156 0 15 6.714844 15 15s-6.714844 15-15 15zm0 0"/><path d="m405.988281 391.003906c-2.253906 0-4.542969-.511718-6.695312-1.589844-7.410157-3.703124-10.414063-12.714843-6.707031-20.125l30-60c3.703124-7.40625 12.714843-10.410156 20.121093-6.707031 7.410157 3.707031 10.414063 12.714844 6.707031 20.125l-30 60c-2.625 5.257813-7.925781 8.296875-13.425781 8.296875zm0 0"/></g><path d="m226 391h-150c-8.285156 0-15-6.714844-15-15s6.714844-15 15-15h150c41.355469 0 75-33.644531 75-75v-106l5-6v-141l-5-3h-45c-57.898438 0-105 47.101562-105 105v121c0 8.285156-6.714844 15-15 15s-15-6.714844-15-15v-121c0-74.4375 60.5625-135 135-135h60c8.285156 0 15 6.714844 15 15v15l-3 3v113l3 4v136c0 57.898438-47.101562 105-105 105zm0 0" fill="#966857"/><path d="m316 180h-45c-49.625 0-90-40.375-90-90s40.375-90 90-90h45c8.285156 0 15 6.714844 15 15v150c0 8.285156-6.714844 15-15 15zm-45-150c-33.085938 0-60 26.914062-60 60s26.914062 60 60 60h30v-120zm0 0" fill="#efe6de"/><path d="m208.484375 182.015625c-22.011719-3.582031-44.265625 2.554687-61.054687 16.832031-13.25 11.273438-22.042969 26.617188-25.167969 43.414063-30.355469 5.640625-54.34375 29.625-59.996094 59.976562-14.859375 2.707031-28.609375 9.789063-39.675781 20.609375-14.566406 14.238282-22.589844 33.113282-22.589844 53.152344 0 8.285156 6.714844 15 15 15h124.210938c72.667968 0 131.789062-59.121094 131.789062-131.789062 0-38.210938-26.875-71.398438-62.515625-77.195313zm-69.273437 178.984375h-106.476563c6.476563-17.28125 23.675781-30 43.265625-30h60c.542969 0 1.078125-.03125 1.605469-.089844.527343.058594 1.058593.089844 1.601562.089844 39.585938 0 71.792969-32.207031 71.792969-71.792969 0-1.605469-.191406-3.011719-.371094-4.023437-.246094-4.410156-2.425781-8.671875-6.3125-11.425782-6.757812-4.785156-16.121094-3.1875-20.910156 3.570313-2.539062 3.589844-3.351562 7.839844-2.414062 12.636719-.402344 22.699218-18.992188 41.035156-41.785157 41.035156-.542969 0-1.074219.03125-1.601562.089844-.527344-.058594-1.0625-.089844-1.605469-.089844h-42.429688c6.191407-17.460938 22.871094-30 42.429688-30 8.285156 0 15-6.714844 15-15 0-13.222656 5.78125-25.722656 15.867188-34.300781 10.222656-8.691407 23.289062-12.269531 36.800781-10.070313 21.28125 3.460938 37.332031 23.917969 37.332031 47.582032 0 56.125-45.664062 101.789062-101.789062 101.789062zm0 0" fill="#c27b48"/></svg>